<svg xmlns="http://www.w3.org/2000/svg" width="314" height="18" viewBox="0 0 314 18">
  <g id="Pagamenti_sicuri_-_Nexi_Saltedge_Paytipper" data-name="Pagamenti sicuri - Nexi Saltedge Paytipper" transform="translate(18811 22179)">
    <rect id="Rettangolo_7878" data-name="Rettangolo 7878" width="314" height="18" transform="translate(-18811 -22179)" fill="none"/>
    <g id="Pagamenti_sicuri" data-name="Pagamenti sicuri" transform="translate(-18859 -22179)" opacity="0.99">
      <g id="Raggruppa_8940" data-name="Raggruppa 8940" transform="translate(82.995 5)">
        <path id="Tracciato_15766" data-name="Tracciato 15766" d="M19.449,11.666c-.061.154-.124.306-.182.46q-1.36,3.509-2.714,7.015l-.073.177a.261.261,0,0,1-.257.172c-.448,0-.893.007-1.342,0a.262.262,0,0,1-.245-.382c.082-.213.177-.421.269-.632Q16.751,14.18,18.6,9.888c.022-.052.046-.1.066-.152a.333.333,0,0,1,.364-.233c.33.01.661.01.988,0a.35.35,0,0,1,.373.257c.373.888.756,1.777,1.134,2.665l2.771,6.5a1.018,1.018,0,0,1,.083.222.257.257,0,0,1-.158.326.26.26,0,0,1-.1.014c-.462.007-.925,0-1.388,0-.174,0-.24-.118-.293-.26q-.338-.874-.681-1.746-1.086-2.8-2.173-5.6c-.026-.071-.061-.142-.089-.213Z" transform="translate(-7.5 -9.498)" fill="#2a3550"/>
        <path id="Tracciato_15767" data-name="Tracciato 15767" d="M36.957,17.253c0-.611,0-1.221,0-1.832a.778.778,0,0,0-.138-.468q-1.585-2.406-3.162-4.815a1.848,1.848,0,0,1-.15-.24.265.265,0,0,1,.228-.394c.495-.01.989,0,1.483,0,.148,0,.215.1.283.215q.517.879,1.038,1.756c.333.564.666,1.129,1,1.692a1.368,1.368,0,0,0,.087.142.282.282,0,0,0,.477,0c.034-.044.06-.093.089-.14l1.969-3.3c.252-.426.213-.373.645-.375.361,0,.722,0,1.083,0a.266.266,0,0,1,.24.414,1.639,1.639,0,0,1-.1.162l-.8,1.229L38.838,14.93a.833.833,0,0,0-.146.487c0,1.2,0,2.41,0,3.615a1.189,1.189,0,0,1-.007.213.248.248,0,0,1-.252.235q-.614.011-1.221,0a.246.246,0,0,1-.255-.236c0-.007,0-.014,0-.021-.008-.086-.006-.174-.006-.26Z" transform="translate(-15.891 -9.497)" fill="#2a3550"/>
        <path id="Tracciato_15768" data-name="Tracciato 15768" d="M114.888,14.485V9.846c.007-.252.09-.333.347-.333q2.707,0,5.414,0c.271,0,.349.081.354.35,0,.078,0,.159,0,.238a.281.281,0,0,1-.265.3H120.7c-.061,0-.124,0-.187,0h-4.143a1.95,1.95,0,0,0-.213,0,.288.288,0,0,0-.288.284v2.784c0,.272.1.37.368.375h4.1c.233.007.327.1.333.333a2.292,2.292,0,0,1,0,.262.274.274,0,0,1-.254.292.282.282,0,0,1-.043,0h-4.145c-.249.007-.349.111-.356.368v3.069a1.252,1.252,0,0,0,0,.144.287.287,0,0,0,.284.289,1.941,1.941,0,0,0,.213,0q2.14,0,4.283,0h.167a.677.677,0,0,1,.095,0c.218.034.283.172.267.546-.01.23-.1.326-.308.333H115.2c-.222-.007-.305-.09-.313-.321-.005-.071,0-.144,0-.215Z" transform="translate(-52.102 -9.503)" fill="#2a3550"/>
        <path id="Tracciato_15769" data-name="Tracciato 15769" d="M56.391,14.962v4.044c0,.071,0,.142,0,.213a.259.259,0,0,1-.249.269h-.021a3.953,3.953,0,0,1-.444,0,.246.246,0,0,1-.262-.23c0-.006,0-.012,0-.017a2.208,2.208,0,0,1-.007-.284V10.9c0-.345-.029-.517-.509-.507-.79.015-1.582,0-2.375,0a1.26,1.26,0,0,1-.189-.007.267.267,0,0,1-.245-.247,1.809,1.809,0,0,1,0-.38.268.268,0,0,1,.266-.252c.056,0,.111,0,.167,0h6.919a.251.251,0,0,1,.259.243v.007a2.561,2.561,0,0,1,0,.358.264.264,0,0,1-.253.274h-.013a1.5,1.5,0,0,1-.187,0h-2.4a1.494,1.494,0,0,0-.187,0,.285.285,0,0,0-.262.262,2.145,2.145,0,0,0,0,.215Q56.39,12.917,56.391,14.962Z" transform="translate(-24.167 -9.501)" fill="#2a3550"/>
        <path id="Tracciato_15770" data-name="Tracciato 15770" d="M72.153,14.518v4.494c0,.434-.043.477-.47.477h-.235a.269.269,0,0,1-.283-.255.213.213,0,0,1,0-.027c0-.056,0-.111,0-.167V9.955a1.825,1.825,0,0,1,0-.191.266.266,0,0,1,.271-.262h.007c.148,0,.3-.007.444,0a.244.244,0,0,1,.249.235,1.563,1.563,0,0,1,.012.26Z" transform="translate(-32.655 -9.497)" fill="#2a3550"/>
        <path id="Tracciato_15771" data-name="Tracciato 15771" d="M6.938,12.145a2.555,2.555,0,0,0-.574-1.577A2.637,2.637,0,0,0,5.092,9.75a5.8,5.8,0,0,0-1.739-.245H.414a1.193,1.193,0,0,0-.167,0A.26.26,0,0,0,0,9.753a1.642,1.642,0,0,0,0,.215v9.057a1.951,1.951,0,0,0,0,.213.248.248,0,0,0,.24.248q.625.015,1.248,0a.242.242,0,0,0,.242-.242h0a1.784,1.784,0,0,0,0-.189V15.869a1.544,1.544,0,0,1,.01-.238.306.306,0,0,1,.3-.281c.077-.007.155,0,.235,0,.562-.015,1.129-.01,1.691-.056a3.863,3.863,0,0,0,1.718-.519,2.4,2.4,0,0,0,1.19-1.685A4.448,4.448,0,0,0,6.938,12.145Zm-2.4,1.416a1.992,1.992,0,0,1-.872.264c-.531.034-1.064.042-1.6.047-.228,0-.333-.12-.336-.368-.007-.365,0-.73,0-1.095h0v-1c0-.333.1-.434.422-.429.509,0,1.02.017,1.528.037a1.91,1.91,0,0,1,.792.2,1.2,1.2,0,0,1,.71,1.09,1.26,1.26,0,0,1-.645,1.251Z" transform="translate(0 -9.5)" fill="#2a3550"/>
        <path id="Tracciato_15772" data-name="Tracciato 15772" d="M138.736,18.917q-1.11-1.822-2.215-3.644c-.24-.394-.184-.526.264-.646a2.491,2.491,0,0,0,1.94-2.6,2.3,2.3,0,0,0-1.613-2.268,4.769,4.769,0,0,0-1.548-.255c-.915,0-1.832,0-2.752,0a.579.579,0,0,0-.116,0,.255.255,0,0,0-.235.228,1.517,1.517,0,0,0-.005.213v9.273a.26.26,0,0,0,.253.267h.018c.078,0,.158,0,.235,0,.421.024.477-.09.477-.47-.007-1.269-.005-2.537,0-3.8,0-.3.1-.4.395-.4.323,0,.645.012.964,0a.492.492,0,0,1,.509.289c.751,1.3,1.514,2.594,2.272,3.889.068.115.135.23.205.345a.284.284,0,0,0,.271.154c.117,0,.235,0,.354,0,.153,0,.325.042.419-.135S138.818,19.052,138.736,18.917Zm-4.9-4.957c-.3,0-.393-.105-.393-.406V10.769c0-.309.1-.416.409-.411.676.01,1.35.017,2.024.044a2.384,2.384,0,0,1,.949.245,1.513,1.513,0,0,1,.913,1.411,2.587,2.587,0,0,1-.027.472,1.438,1.438,0,0,1-.717,1.034,2.63,2.63,0,0,1-1.231.363C135.118,13.957,134.474,13.957,133.832,13.96Z" transform="translate(-59.916 -9.5)" fill="#2a3550"/>
        <path id="Tracciato_15773" data-name="Tracciato 15773" d="M103.734,11.889a2.307,2.307,0,0,0-1.58-2.1,4.431,4.431,0,0,0-1.613-.278c-.586,0-1.175,0-1.763,0h-.823c-.23,0-.323.1-.333.333v9.344c.012.21.1.3.308.309.123,0,.25,0,.376,0a.268.268,0,0,0,.3-.23.242.242,0,0,0,0-.057c0-.071,0-.142,0-.213V15.4c0-.086,0-.174,0-.262a.29.29,0,0,1,.286-.291,1.486,1.486,0,0,1,.211,0c.579-.007,1.16,0,1.739-.019a3.666,3.666,0,0,0,1.706-.475,2.241,2.241,0,0,0,1.114-1.491A3.167,3.167,0,0,0,103.734,11.889Zm-1.013.658a1.48,1.48,0,0,1-.833,1.139,2.6,2.6,0,0,1-1.107.291c-.6.019-1.209.017-1.813.017-.259,0-.356-.1-.358-.363-.007-.482,0-.965,0-1.45h0v-1.4c0-.328.1-.426.426-.421.635.01,1.27.014,1.9.044a2.41,2.41,0,0,1,.99.281,1.357,1.357,0,0,1,.777,1.039,3.05,3.05,0,0,1,.014.826Z" transform="translate(-44.423 -9.502)" fill="#2a3550"/>
        <path id="Tracciato_15774" data-name="Tracciato 15774" d="M86.345,11.226A2.323,2.323,0,0,0,84.8,9.749,4.617,4.617,0,0,0,83.248,9.5H80.8c-.38,0-.434.056-.434.441V18.98c0,.081,0,.159.005.238.014.177.1.262.264.269a4.021,4.021,0,0,0,.448,0,.256.256,0,0,0,.264-.248h0a1.517,1.517,0,0,0,0-.213V15.34a1.954,1.954,0,0,1,.005-.213.284.284,0,0,1,.247-.278,1.219,1.219,0,0,1,.211-.01h1.318a4.459,4.459,0,0,0,1.967-.389A2.268,2.268,0,0,0,86.375,13,2.934,2.934,0,0,0,86.345,11.226Zm-.85,1.107a1.6,1.6,0,0,1-1.166,1.484,3.58,3.58,0,0,1-1.18.177c-.47,0-.944,0-1.412,0-.288,0-.381-.093-.381-.385V10.733c0-.257.1-.375.352-.372.649,0,1.3.007,1.95.044a2.856,2.856,0,0,1,.777.179,1.548,1.548,0,0,1,1.059,1.749Z" transform="translate(-36.749 -9.5)" fill="#2a3550"/>
      </g>
      <g id="Raggruppa_8940" data-name="Raggruppa 8940" transform="translate(182.995 5)">
        <path id="Tracciato_15766" data-name="Tracciato 15766" d="M19.449,11.666c-.061.154-.124.306-.182.46q-1.36,3.509-2.714,7.015l-.073.177a.261.261,0,0,1-.257.172c-.448,0-.893.007-1.342,0a.262.262,0,0,1-.245-.382c.082-.213.177-.421.269-.632Q16.751,14.18,18.6,9.888c.022-.052.046-.1.066-.152a.333.333,0,0,1,.364-.233c.33.01.661.01.988,0a.35.35,0,0,1,.373.257c.373.888.756,1.777,1.134,2.665l2.771,6.5a1.018,1.018,0,0,1,.083.222.257.257,0,0,1-.158.326.26.26,0,0,1-.1.014c-.462.007-.925,0-1.388,0-.174,0-.24-.118-.293-.26q-.338-.874-.681-1.746-1.086-2.8-2.173-5.6c-.026-.071-.061-.142-.089-.213Z" transform="translate(-7.5 -9.498)" fill="#2a3550"/>
        <path id="Tracciato_15767" data-name="Tracciato 15767" d="M36.957,17.253c0-.611,0-1.221,0-1.832a.778.778,0,0,0-.138-.468q-1.585-2.406-3.162-4.815a1.848,1.848,0,0,1-.15-.24.265.265,0,0,1,.228-.394c.495-.01.989,0,1.483,0,.148,0,.215.1.283.215q.517.879,1.038,1.756c.333.564.666,1.129,1,1.692a1.368,1.368,0,0,0,.087.142.282.282,0,0,0,.477,0c.034-.044.06-.093.089-.14l1.969-3.3c.252-.426.213-.373.645-.375.361,0,.722,0,1.083,0a.266.266,0,0,1,.24.414,1.639,1.639,0,0,1-.1.162l-.8,1.229L38.838,14.93a.833.833,0,0,0-.146.487c0,1.2,0,2.41,0,3.615a1.189,1.189,0,0,1-.007.213.248.248,0,0,1-.252.235q-.614.011-1.221,0a.246.246,0,0,1-.255-.236c0-.007,0-.014,0-.021-.008-.086-.006-.174-.006-.26Z" transform="translate(-15.891 -9.497)" fill="#2a3550"/>
        <path id="Tracciato_15768" data-name="Tracciato 15768" d="M114.888,14.485V9.846c.007-.252.09-.333.347-.333q2.707,0,5.414,0c.271,0,.349.081.354.35,0,.078,0,.159,0,.238a.281.281,0,0,1-.265.3H120.7c-.061,0-.124,0-.187,0h-4.143a1.95,1.95,0,0,0-.213,0,.288.288,0,0,0-.288.284v2.784c0,.272.1.37.368.375h4.1c.233.007.327.1.333.333a2.292,2.292,0,0,1,0,.262.274.274,0,0,1-.254.292.282.282,0,0,1-.043,0h-4.145c-.249.007-.349.111-.356.368v3.069a1.252,1.252,0,0,0,0,.144.287.287,0,0,0,.284.289,1.941,1.941,0,0,0,.213,0q2.14,0,4.283,0h.167a.677.677,0,0,1,.095,0c.218.034.283.172.267.546-.01.23-.1.326-.308.333H115.2c-.222-.007-.305-.09-.313-.321-.005-.071,0-.144,0-.215Z" transform="translate(-52.102 -9.503)" fill="#2a3550"/>
        <path id="Tracciato_15769" data-name="Tracciato 15769" d="M56.391,14.962v4.044c0,.071,0,.142,0,.213a.259.259,0,0,1-.249.269h-.021a3.953,3.953,0,0,1-.444,0,.246.246,0,0,1-.262-.23c0-.006,0-.012,0-.017a2.208,2.208,0,0,1-.007-.284V10.9c0-.345-.029-.517-.509-.507-.79.015-1.582,0-2.375,0a1.26,1.26,0,0,1-.189-.007.267.267,0,0,1-.245-.247,1.809,1.809,0,0,1,0-.38.268.268,0,0,1,.266-.252c.056,0,.111,0,.167,0h6.919a.251.251,0,0,1,.259.243v.007a2.561,2.561,0,0,1,0,.358.264.264,0,0,1-.253.274h-.013a1.5,1.5,0,0,1-.187,0h-2.4a1.494,1.494,0,0,0-.187,0,.285.285,0,0,0-.262.262,2.145,2.145,0,0,0,0,.215Q56.39,12.917,56.391,14.962Z" transform="translate(-24.167 -9.501)" fill="#2a3550"/>
        <path id="Tracciato_15770" data-name="Tracciato 15770" d="M72.153,14.518v4.494c0,.434-.043.477-.47.477h-.235a.269.269,0,0,1-.283-.255.213.213,0,0,1,0-.027c0-.056,0-.111,0-.167V9.955a1.825,1.825,0,0,1,0-.191.266.266,0,0,1,.271-.262h.007c.148,0,.3-.007.444,0a.244.244,0,0,1,.249.235,1.563,1.563,0,0,1,.012.26Z" transform="translate(-32.655 -9.497)" fill="#2a3550"/>
        <path id="Tracciato_15771" data-name="Tracciato 15771" d="M6.938,12.145a2.555,2.555,0,0,0-.574-1.577A2.637,2.637,0,0,0,5.092,9.75a5.8,5.8,0,0,0-1.739-.245H.414a1.193,1.193,0,0,0-.167,0A.26.26,0,0,0,0,9.753a1.642,1.642,0,0,0,0,.215v9.057a1.951,1.951,0,0,0,0,.213.248.248,0,0,0,.24.248q.625.015,1.248,0a.242.242,0,0,0,.242-.242h0a1.784,1.784,0,0,0,0-.189V15.869a1.544,1.544,0,0,1,.01-.238.306.306,0,0,1,.3-.281c.077-.007.155,0,.235,0,.562-.015,1.129-.01,1.691-.056a3.863,3.863,0,0,0,1.718-.519,2.4,2.4,0,0,0,1.19-1.685A4.448,4.448,0,0,0,6.938,12.145Zm-2.4,1.416a1.992,1.992,0,0,1-.872.264c-.531.034-1.064.042-1.6.047-.228,0-.333-.12-.336-.368-.007-.365,0-.73,0-1.095h0v-1c0-.333.1-.434.422-.429.509,0,1.02.017,1.528.037a1.91,1.91,0,0,1,.792.2,1.2,1.2,0,0,1,.71,1.09,1.26,1.26,0,0,1-.645,1.251Z" transform="translate(0 -9.5)" fill="#2a3550"/>
        <path id="Tracciato_15772" data-name="Tracciato 15772" d="M138.736,18.917q-1.11-1.822-2.215-3.644c-.24-.394-.184-.526.264-.646a2.491,2.491,0,0,0,1.94-2.6,2.3,2.3,0,0,0-1.613-2.268,4.769,4.769,0,0,0-1.548-.255c-.915,0-1.832,0-2.752,0a.579.579,0,0,0-.116,0,.255.255,0,0,0-.235.228,1.517,1.517,0,0,0-.005.213v9.273a.26.26,0,0,0,.253.267h.018c.078,0,.158,0,.235,0,.421.024.477-.09.477-.47-.007-1.269-.005-2.537,0-3.8,0-.3.1-.4.395-.4.323,0,.645.012.964,0a.492.492,0,0,1,.509.289c.751,1.3,1.514,2.594,2.272,3.889.068.115.135.23.205.345a.284.284,0,0,0,.271.154c.117,0,.235,0,.354,0,.153,0,.325.042.419-.135S138.818,19.052,138.736,18.917Zm-4.9-4.957c-.3,0-.393-.105-.393-.406V10.769c0-.309.1-.416.409-.411.676.01,1.35.017,2.024.044a2.384,2.384,0,0,1,.949.245,1.513,1.513,0,0,1,.913,1.411,2.587,2.587,0,0,1-.027.472,1.438,1.438,0,0,1-.717,1.034,2.63,2.63,0,0,1-1.231.363C135.118,13.957,134.474,13.957,133.832,13.96Z" transform="translate(-59.916 -9.5)" fill="#2a3550"/>
        <path id="Tracciato_15773" data-name="Tracciato 15773" d="M103.734,11.889a2.307,2.307,0,0,0-1.58-2.1,4.431,4.431,0,0,0-1.613-.278c-.586,0-1.175,0-1.763,0h-.823c-.23,0-.323.1-.333.333v9.344c.012.21.1.3.308.309.123,0,.25,0,.376,0a.268.268,0,0,0,.3-.23.242.242,0,0,0,0-.057c0-.071,0-.142,0-.213V15.4c0-.086,0-.174,0-.262a.29.29,0,0,1,.286-.291,1.486,1.486,0,0,1,.211,0c.579-.007,1.16,0,1.739-.019a3.666,3.666,0,0,0,1.706-.475,2.241,2.241,0,0,0,1.114-1.491A3.167,3.167,0,0,0,103.734,11.889Zm-1.013.658a1.48,1.48,0,0,1-.833,1.139,2.6,2.6,0,0,1-1.107.291c-.6.019-1.209.017-1.813.017-.259,0-.356-.1-.358-.363-.007-.482,0-.965,0-1.45h0v-1.4c0-.328.1-.426.426-.421.635.01,1.27.014,1.9.044a2.41,2.41,0,0,1,.99.281,1.357,1.357,0,0,1,.777,1.039,3.05,3.05,0,0,1,.014.826Z" transform="translate(-44.423 -9.502)" fill="#2a3550"/>
        <path id="Tracciato_15774" data-name="Tracciato 15774" d="M86.345,11.226A2.323,2.323,0,0,0,84.8,9.749,4.617,4.617,0,0,0,83.248,9.5H80.8c-.38,0-.434.056-.434.441V18.98c0,.081,0,.159.005.238.014.177.1.262.264.269a4.021,4.021,0,0,0,.448,0,.256.256,0,0,0,.264-.248h0a1.517,1.517,0,0,0,0-.213V15.34a1.954,1.954,0,0,1,.005-.213.284.284,0,0,1,.247-.278,1.219,1.219,0,0,1,.211-.01h1.318a4.459,4.459,0,0,0,1.967-.389A2.268,2.268,0,0,0,86.375,13,2.934,2.934,0,0,0,86.345,11.226Zm-.85,1.107a1.6,1.6,0,0,1-1.166,1.484,3.58,3.58,0,0,1-1.18.177c-.47,0-.944,0-1.412,0-.288,0-.381-.093-.381-.385V10.733c0-.257.1-.375.352-.372.649,0,1.3.007,1.95.044a2.856,2.856,0,0,1,.777.179,1.548,1.548,0,0,1,1.059,1.749Z" transform="translate(-36.749 -9.5)" fill="#2a3550"/>
      </g>
      <g id="Raggruppa_8940" data-name="Raggruppa 8940" transform="translate(282.995 5)">
        <path id="Tracciato_15766" data-name="Tracciato 15766" d="M19.449,11.666c-.061.154-.124.306-.182.46q-1.36,3.509-2.714,7.015l-.073.177a.261.261,0,0,1-.257.172c-.448,0-.893.007-1.342,0a.262.262,0,0,1-.245-.382c.082-.213.177-.421.269-.632Q16.751,14.18,18.6,9.888c.022-.052.046-.1.066-.152a.333.333,0,0,1,.364-.233c.33.01.661.01.988,0a.35.35,0,0,1,.373.257c.373.888.756,1.777,1.134,2.665l2.771,6.5a1.018,1.018,0,0,1,.083.222.257.257,0,0,1-.158.326.26.26,0,0,1-.1.014c-.462.007-.925,0-1.388,0-.174,0-.24-.118-.293-.26q-.338-.874-.681-1.746-1.086-2.8-2.173-5.6c-.026-.071-.061-.142-.089-.213Z" transform="translate(-7.5 -9.498)" fill="#2a3550"/>
        <path id="Tracciato_15767" data-name="Tracciato 15767" d="M36.957,17.253c0-.611,0-1.221,0-1.832a.778.778,0,0,0-.138-.468q-1.585-2.406-3.162-4.815a1.848,1.848,0,0,1-.15-.24.265.265,0,0,1,.228-.394c.495-.01.989,0,1.483,0,.148,0,.215.1.283.215q.517.879,1.038,1.756c.333.564.666,1.129,1,1.692a1.368,1.368,0,0,0,.087.142.282.282,0,0,0,.477,0c.034-.044.06-.093.089-.14l1.969-3.3c.252-.426.213-.373.645-.375.361,0,.722,0,1.083,0a.266.266,0,0,1,.24.414,1.639,1.639,0,0,1-.1.162l-.8,1.229L38.838,14.93a.833.833,0,0,0-.146.487c0,1.2,0,2.41,0,3.615a1.189,1.189,0,0,1-.007.213.248.248,0,0,1-.252.235q-.614.011-1.221,0a.246.246,0,0,1-.255-.236c0-.007,0-.014,0-.021-.008-.086-.006-.174-.006-.26Z" transform="translate(-15.891 -9.497)" fill="#2a3550"/>
        <path id="Tracciato_15768" data-name="Tracciato 15768" d="M114.888,14.485V9.846c.007-.252.09-.333.347-.333q2.707,0,5.414,0c.271,0,.349.081.354.35,0,.078,0,.159,0,.238a.281.281,0,0,1-.265.3H120.7c-.061,0-.124,0-.187,0h-4.143a1.95,1.95,0,0,0-.213,0,.288.288,0,0,0-.288.284v2.784c0,.272.1.37.368.375h4.1c.233.007.327.1.333.333a2.292,2.292,0,0,1,0,.262.274.274,0,0,1-.254.292.282.282,0,0,1-.043,0h-4.145c-.249.007-.349.111-.356.368v3.069a1.252,1.252,0,0,0,0,.144.287.287,0,0,0,.284.289,1.941,1.941,0,0,0,.213,0q2.14,0,4.283,0h.167a.677.677,0,0,1,.095,0c.218.034.283.172.267.546-.01.23-.1.326-.308.333H115.2c-.222-.007-.305-.09-.313-.321-.005-.071,0-.144,0-.215Z" transform="translate(-52.102 -9.503)" fill="#2a3550"/>
        <path id="Tracciato_15769" data-name="Tracciato 15769" d="M56.391,14.962v4.044c0,.071,0,.142,0,.213a.259.259,0,0,1-.249.269h-.021a3.953,3.953,0,0,1-.444,0,.246.246,0,0,1-.262-.23c0-.006,0-.012,0-.017a2.208,2.208,0,0,1-.007-.284V10.9c0-.345-.029-.517-.509-.507-.79.015-1.582,0-2.375,0a1.26,1.26,0,0,1-.189-.007.267.267,0,0,1-.245-.247,1.809,1.809,0,0,1,0-.38.268.268,0,0,1,.266-.252c.056,0,.111,0,.167,0h6.919a.251.251,0,0,1,.259.243v.007a2.561,2.561,0,0,1,0,.358.264.264,0,0,1-.253.274h-.013a1.5,1.5,0,0,1-.187,0h-2.4a1.494,1.494,0,0,0-.187,0,.285.285,0,0,0-.262.262,2.145,2.145,0,0,0,0,.215Q56.39,12.917,56.391,14.962Z" transform="translate(-24.167 -9.501)" fill="#2a3550"/>
        <path id="Tracciato_15770" data-name="Tracciato 15770" d="M72.153,14.518v4.494c0,.434-.043.477-.47.477h-.235a.269.269,0,0,1-.283-.255.213.213,0,0,1,0-.027c0-.056,0-.111,0-.167V9.955a1.825,1.825,0,0,1,0-.191.266.266,0,0,1,.271-.262h.007c.148,0,.3-.007.444,0a.244.244,0,0,1,.249.235,1.563,1.563,0,0,1,.012.26Z" transform="translate(-32.655 -9.497)" fill="#2a3550"/>
        <path id="Tracciato_15771" data-name="Tracciato 15771" d="M6.938,12.145a2.555,2.555,0,0,0-.574-1.577A2.637,2.637,0,0,0,5.092,9.75a5.8,5.8,0,0,0-1.739-.245H.414a1.193,1.193,0,0,0-.167,0A.26.26,0,0,0,0,9.753a1.642,1.642,0,0,0,0,.215v9.057a1.951,1.951,0,0,0,0,.213.248.248,0,0,0,.24.248q.625.015,1.248,0a.242.242,0,0,0,.242-.242h0a1.784,1.784,0,0,0,0-.189V15.869a1.544,1.544,0,0,1,.01-.238.306.306,0,0,1,.3-.281c.077-.007.155,0,.235,0,.562-.015,1.129-.01,1.691-.056a3.863,3.863,0,0,0,1.718-.519,2.4,2.4,0,0,0,1.19-1.685A4.448,4.448,0,0,0,6.938,12.145Zm-2.4,1.416a1.992,1.992,0,0,1-.872.264c-.531.034-1.064.042-1.6.047-.228,0-.333-.12-.336-.368-.007-.365,0-.73,0-1.095h0v-1c0-.333.1-.434.422-.429.509,0,1.02.017,1.528.037a1.91,1.91,0,0,1,.792.2,1.2,1.2,0,0,1,.71,1.09,1.26,1.26,0,0,1-.645,1.251Z" transform="translate(0 -9.5)" fill="#2a3550"/>
        <path id="Tracciato_15772" data-name="Tracciato 15772" d="M138.736,18.917q-1.11-1.822-2.215-3.644c-.24-.394-.184-.526.264-.646a2.491,2.491,0,0,0,1.94-2.6,2.3,2.3,0,0,0-1.613-2.268,4.769,4.769,0,0,0-1.548-.255c-.915,0-1.832,0-2.752,0a.579.579,0,0,0-.116,0,.255.255,0,0,0-.235.228,1.517,1.517,0,0,0-.005.213v9.273a.26.26,0,0,0,.253.267h.018c.078,0,.158,0,.235,0,.421.024.477-.09.477-.47-.007-1.269-.005-2.537,0-3.8,0-.3.1-.4.395-.4.323,0,.645.012.964,0a.492.492,0,0,1,.509.289c.751,1.3,1.514,2.594,2.272,3.889.068.115.135.23.205.345a.284.284,0,0,0,.271.154c.117,0,.235,0,.354,0,.153,0,.325.042.419-.135S138.818,19.052,138.736,18.917Zm-4.9-4.957c-.3,0-.393-.105-.393-.406V10.769c0-.309.1-.416.409-.411.676.01,1.35.017,2.024.044a2.384,2.384,0,0,1,.949.245,1.513,1.513,0,0,1,.913,1.411,2.587,2.587,0,0,1-.027.472,1.438,1.438,0,0,1-.717,1.034,2.63,2.63,0,0,1-1.231.363C135.118,13.957,134.474,13.957,133.832,13.96Z" transform="translate(-59.916 -9.5)" fill="#2a3550"/>
        <path id="Tracciato_15773" data-name="Tracciato 15773" d="M103.734,11.889a2.307,2.307,0,0,0-1.58-2.1,4.431,4.431,0,0,0-1.613-.278c-.586,0-1.175,0-1.763,0h-.823c-.23,0-.323.1-.333.333v9.344c.012.21.1.3.308.309.123,0,.25,0,.376,0a.268.268,0,0,0,.3-.23.242.242,0,0,0,0-.057c0-.071,0-.142,0-.213V15.4c0-.086,0-.174,0-.262a.29.29,0,0,1,.286-.291,1.486,1.486,0,0,1,.211,0c.579-.007,1.16,0,1.739-.019a3.666,3.666,0,0,0,1.706-.475,2.241,2.241,0,0,0,1.114-1.491A3.167,3.167,0,0,0,103.734,11.889Zm-1.013.658a1.48,1.48,0,0,1-.833,1.139,2.6,2.6,0,0,1-1.107.291c-.6.019-1.209.017-1.813.017-.259,0-.356-.1-.358-.363-.007-.482,0-.965,0-1.45h0v-1.4c0-.328.1-.426.426-.421.635.01,1.27.014,1.9.044a2.41,2.41,0,0,1,.99.281,1.357,1.357,0,0,1,.777,1.039,3.05,3.05,0,0,1,.014.826Z" transform="translate(-44.423 -9.502)" fill="#2a3550"/>
        <path id="Tracciato_15774" data-name="Tracciato 15774" d="M86.345,11.226A2.323,2.323,0,0,0,84.8,9.749,4.617,4.617,0,0,0,83.248,9.5H80.8c-.38,0-.434.056-.434.441V18.98c0,.081,0,.159.005.238.014.177.1.262.264.269a4.021,4.021,0,0,0,.448,0,.256.256,0,0,0,.264-.248h0a1.517,1.517,0,0,0,0-.213V15.34a1.954,1.954,0,0,1,.005-.213.284.284,0,0,1,.247-.278,1.219,1.219,0,0,1,.211-.01h1.318a4.459,4.459,0,0,0,1.967-.389A2.268,2.268,0,0,0,86.375,13,2.934,2.934,0,0,0,86.345,11.226Zm-.85,1.107a1.6,1.6,0,0,1-1.166,1.484,3.58,3.58,0,0,1-1.18.177c-.47,0-.944,0-1.412,0-.288,0-.381-.093-.381-.385V10.733c0-.257.1-.375.352-.372.649,0,1.3.007,1.95.044a2.856,2.856,0,0,1,.777.179,1.548,1.548,0,0,1,1.059,1.749Z" transform="translate(-36.749 -9.5)" fill="#2a3550"/>
      </g>
    </g>
  </g>
</svg>
